<svg width="353" height="48" viewBox="0 0 353 48" fill="none" xmlns="http://www.w3.org/2000/svg">
<path d="M65.5559 35L72.2439 12.6H76.2759L82.9639 35H79.2839L77.7799 29.624H70.7399L69.2359 35H65.5559ZM74.1639 17.4L71.5079 26.904H77.0119L74.3559 17.4H74.1639ZM92.0394 35.384C90.1194 35.384 88.658 34.7973 87.6554 33.624C86.674 32.4293 86.1834 30.7013 86.1834 28.44V19.128H89.5754V28.024C89.5754 29.3253 89.8527 30.3493 90.4074 31.096C90.9834 31.8213 91.858 32.184 93.0314 32.184C94.2047 32.184 95.186 31.7893 95.9754 31C96.7647 30.2107 97.1594 29.0693 97.1594 27.576V19.128H100.551V35H97.6074L97.3194 32.632H97.1594C96.7327 33.4 96.0714 34.0507 95.1754 34.584C94.2794 35.1173 93.234 35.384 92.0394 35.384ZM114.363 35C112.806 35 111.568 34.6267 110.651 33.88C109.734 33.112 109.275 31.7573 109.275 29.816V22.008H105.275V19.128H107.643C108.731 19.128 109.371 18.5947 109.563 17.528L110.043 14.968H112.667V19.128H118.939V22.008H112.667V29.752C112.667 30.584 112.848 31.1707 113.211 31.512C113.595 31.832 114.246 31.992 115.163 31.992H118.875V35H114.363ZM131.822 35.384C130.308 35.384 128.953 35.0427 127.758 34.36C126.564 33.6773 125.625 32.7173 124.942 31.48C124.26 30.2213 123.918 28.7493 123.918 27.064C123.918 25.3787 124.26 23.9173 124.942 22.68C125.625 21.4213 126.564 20.4507 127.758 19.768C128.953 19.0853 130.318 18.744 131.854 18.744C133.39 18.744 134.745 19.0853 135.918 19.768C137.113 20.4507 138.041 21.4213 138.702 22.68C139.385 23.9173 139.726 25.3787 139.726 27.064C139.726 28.7493 139.385 30.2213 138.702 31.48C138.02 32.7173 137.081 33.6773 135.886 34.36C134.713 35.0427 133.358 35.384 131.822 35.384ZM131.822 32.152C132.633 32.152 133.38 31.9707 134.062 31.608C134.745 31.2453 135.289 30.6907 135.694 29.944C136.121 29.176 136.334 28.216 136.334 27.064C136.334 25.8907 136.121 24.9307 135.694 24.184C135.289 23.4373 134.745 22.8827 134.062 22.52C133.401 22.1573 132.665 21.976 131.854 21.976C131.044 21.976 130.297 22.1573 129.614 22.52C128.932 22.8827 128.377 23.4373 127.95 24.184C127.545 24.9307 127.342 25.8907 127.342 27.064C127.342 28.8133 127.78 30.104 128.654 30.936C129.55 31.7467 130.606 32.152 131.822 32.152ZM151.874 35.384C150.701 35.384 149.709 35.1493 148.898 34.68C148.109 34.1893 147.501 33.5173 147.074 32.664H146.882L146.594 35H143.682V11.96H147.074V21.176C147.458 20.536 148.066 19.9707 148.898 19.48C149.73 18.9893 150.722 18.744 151.874 18.744C153.197 18.744 154.381 19.064 155.426 19.704C156.471 20.3227 157.293 21.2507 157.89 22.488C158.509 23.7253 158.818 25.2507 158.818 27.064C158.818 28.8773 158.509 30.4027 157.89 31.64C157.293 32.8773 156.471 33.816 155.426 34.456C154.381 35.0747 153.197 35.384 151.874 35.384ZM151.17 32.152C152.386 32.152 153.389 31.736 154.178 30.904C154.989 30.0507 155.394 28.7813 155.394 27.096C155.394 25.3893 154.989 24.1093 154.178 23.256C153.389 22.4027 152.386 21.976 151.17 21.976C149.954 21.976 148.941 22.4027 148.13 23.256C147.341 24.088 146.946 25.3573 146.946 27.064C146.946 28.7493 147.341 30.0187 148.13 30.872C148.941 31.7253 149.954 32.152 151.17 32.152ZM168.757 35.384C167.499 35.384 166.443 35.1707 165.589 34.744C164.736 34.296 164.096 33.7093 163.669 32.984C163.243 32.2373 163.029 31.4267 163.029 30.552C163.029 28.9947 163.595 27.7787 164.725 26.904C165.877 26.0293 167.499 25.592 169.589 25.592H173.685V25.24C173.685 22.8507 172.576 21.656 170.357 21.656C169.44 21.656 168.661 21.8587 168.021 22.264C167.403 22.648 166.987 23.2773 166.773 24.152H163.381C163.552 22.488 164.267 21.176 165.525 20.216C166.805 19.2347 168.416 18.744 170.357 18.744C172.704 18.744 174.411 19.32 175.477 20.472C176.544 21.624 177.077 23.2133 177.077 25.24V35H174.197L173.909 32.664H173.685C173.216 33.4107 172.629 34.0507 171.925 34.584C171.221 35.1173 170.165 35.384 168.757 35.384ZM169.397 32.536C170.784 32.536 171.819 32.12 172.501 31.288C173.205 30.4347 173.589 29.3573 173.653 28.056H169.941C168.725 28.056 167.861 28.2587 167.349 28.664C166.859 29.048 166.613 29.592 166.613 30.296C166.613 31 166.859 31.5547 167.349 31.96C167.861 32.344 168.544 32.536 169.397 32.536ZM189.513 35.384C187.422 35.384 185.758 34.8933 184.521 33.912C183.284 32.9307 182.58 31.6293 182.409 30.008H185.897C186.025 30.7547 186.398 31.3627 187.017 31.832C187.657 32.3013 188.5 32.536 189.545 32.536C190.548 32.536 191.316 32.3333 191.849 31.928C192.404 31.5013 192.681 31.0107 192.681 30.456C192.681 29.6453 192.35 29.0907 191.689 28.792C191.049 28.4933 190.1 28.2693 188.841 28.12C187.753 27.992 186.761 27.7467 185.865 27.384C184.99 27 184.297 26.488 183.785 25.848C183.273 25.1867 183.017 24.3653 183.017 23.384C183.017 21.9973 183.561 20.8773 184.649 20.024C185.737 19.1707 187.252 18.744 189.193 18.744C191.134 18.744 192.638 19.1813 193.705 20.056C194.772 20.9307 195.39 22.1253 195.561 23.64H192.297C192.212 23 191.881 22.4987 191.305 22.136C190.729 21.752 190.014 21.56 189.161 21.56C188.286 21.56 187.593 21.7307 187.081 22.072C186.569 22.392 186.313 22.8187 186.313 23.352C186.313 24.504 187.55 25.208 190.025 25.464C191.198 25.592 192.244 25.816 193.161 26.136C194.078 26.4347 194.804 26.9147 195.337 27.576C195.87 28.216 196.137 29.1227 196.137 30.296C196.158 31.256 195.881 32.12 195.305 32.888C194.75 33.656 193.972 34.264 192.969 34.712C191.988 35.16 190.836 35.384 189.513 35.384ZM208.764 35.384C207.228 35.384 205.874 35.0427 204.7 34.36C203.527 33.656 202.61 32.6853 201.948 31.448C201.287 30.2107 200.956 28.7707 200.956 27.128C200.956 25.464 201.276 24.0027 201.916 22.744C202.578 21.4853 203.495 20.504 204.668 19.8C205.863 19.096 207.239 18.744 208.796 18.744C210.332 18.744 211.655 19.096 212.764 19.8C213.874 20.4827 214.727 21.4 215.324 22.552C215.943 23.704 216.252 24.9733 216.252 26.36C216.252 26.5733 216.252 26.808 216.252 27.064C216.252 27.2987 216.242 27.5653 216.22 27.864H204.284C204.391 29.336 204.871 30.456 205.724 31.224C206.578 31.9707 207.58 32.344 208.732 32.344C209.735 32.344 210.524 32.1413 211.1 31.736C211.698 31.3093 212.135 30.7333 212.412 30.008H215.836C215.452 31.5227 214.652 32.8027 213.436 33.848C212.22 34.872 210.663 35.384 208.764 35.384ZM208.764 21.688C207.719 21.688 206.791 22.008 205.98 22.648C205.17 23.2667 204.647 24.1413 204.412 25.272H212.86C212.775 24.2053 212.359 23.3413 211.612 22.68C210.866 22.0187 209.916 21.688 208.764 21.688ZM239.747 35V12.6H247.075C248.825 12.6 250.265 12.8987 251.395 13.496C252.547 14.0933 253.401 14.904 253.955 15.928C254.531 16.9307 254.819 18.072 254.819 19.352C254.819 20.8027 254.446 22.0933 253.699 23.224C252.974 24.3333 251.854 25.144 250.339 25.656L255.043 35H251.107L246.819 26.136H243.139V35H239.747ZM243.139 23.064H246.883C248.419 23.064 249.539 22.7227 250.243 22.04C250.969 21.3573 251.331 20.4613 251.331 19.352C251.331 18.2213 250.979 17.3253 250.275 16.664C249.571 15.9813 248.43 15.64 246.851 15.64H243.139V23.064ZM266.327 35.384C264.791 35.384 263.436 35.0427 262.263 34.36C261.09 33.656 260.172 32.6853 259.511 31.448C258.85 30.2107 258.519 28.7707 258.519 27.128C258.519 25.464 258.839 24.0027 259.479 22.744C260.14 21.4853 261.058 20.504 262.231 19.8C263.426 19.096 264.802 18.744 266.359 18.744C267.895 18.744 269.218 19.096 270.327 19.8C271.436 20.4827 272.29 21.4 272.887 22.552C273.506 23.704 273.815 24.9733 273.815 26.36C273.815 26.5733 273.815 26.808 273.815 27.064C273.815 27.2987 273.804 27.5653 273.783 27.864H261.847C261.954 29.336 262.434 30.456 263.287 31.224C264.14 31.9707 265.143 32.344 266.295 32.344C267.298 32.344 268.087 32.1413 268.663 31.736C269.26 31.3093 269.698 30.7333 269.975 30.008H273.399C273.015 31.5227 272.215 32.8027 270.999 33.848C269.783 34.872 268.226 35.384 266.327 35.384ZM266.327 21.688C265.282 21.688 264.354 22.008 263.543 22.648C262.732 23.2667 262.21 24.1413 261.975 25.272H270.423C270.338 24.2053 269.922 23.3413 269.175 22.68C268.428 22.0187 267.479 21.688 266.327 21.688ZM286.186 35.384C285.013 35.384 284.021 35.1493 283.21 34.68C282.421 34.1893 281.813 33.5173 281.386 32.664H281.194L280.906 35H277.994V11.96H281.386V21.176C281.77 20.536 282.378 19.9707 283.21 19.48C284.042 18.9893 285.034 18.744 286.186 18.744C287.509 18.744 288.693 19.064 289.738 19.704C290.784 20.3227 291.605 21.2507 292.202 22.488C292.821 23.7253 293.13 25.2507 293.13 27.064C293.13 28.8773 292.821 30.4027 292.202 31.64C291.605 32.8773 290.784 33.816 289.738 34.456C288.693 35.0747 287.509 35.384 286.186 35.384ZM285.482 32.152C286.698 32.152 287.701 31.736 288.49 30.904C289.301 30.0507 289.706 28.7813 289.706 27.096C289.706 25.3893 289.301 24.1093 288.49 23.256C287.701 22.4027 286.698 21.976 285.482 21.976C284.266 21.976 283.253 22.4027 282.442 23.256C281.653 24.088 281.258 25.3573 281.258 27.064C281.258 28.7493 281.653 30.0187 282.442 30.872C283.253 31.7253 284.266 32.152 285.482 32.152ZM304.51 35.384C302.995 35.384 301.641 35.0427 300.446 34.36C299.251 33.6773 298.313 32.7173 297.63 31.48C296.947 30.2213 296.606 28.7493 296.606 27.064C296.606 25.3787 296.947 23.9173 297.63 22.68C298.313 21.4213 299.251 20.4507 300.446 19.768C301.641 19.0853 303.006 18.744 304.542 18.744C306.078 18.744 307.433 19.0853 308.606 19.768C309.801 20.4507 310.729 21.4213 311.39 22.68C312.073 23.9173 312.414 25.3787 312.414 27.064C312.414 28.7493 312.073 30.2213 311.39 31.48C310.707 32.7173 309.769 33.6773 308.574 34.36C307.401 35.0427 306.046 35.384 304.51 35.384ZM304.51 32.152C305.321 32.152 306.067 31.9707 306.75 31.608C307.433 31.2453 307.977 30.6907 308.382 29.944C308.809 29.176 309.022 28.216 309.022 27.064C309.022 25.8907 308.809 24.9307 308.382 24.184C307.977 23.4373 307.433 22.8827 306.75 22.52C306.089 22.1573 305.353 21.976 304.542 21.976C303.731 21.976 302.985 22.1573 302.302 22.52C301.619 22.8827 301.065 23.4373 300.638 24.184C300.233 24.9307 300.03 25.8907 300.03 27.064C300.03 28.8133 300.467 30.104 301.342 30.936C302.238 31.7467 303.294 32.152 304.51 32.152ZM316.561 35V32.056H320.433V23.128C320.433 22.424 320.092 22.072 319.409 22.072H316.881V19.128H320.689C321.564 19.128 322.279 19.384 322.833 19.896C323.388 20.3867 323.665 21.08 323.665 21.976V22.36H323.825C324.06 21.1653 324.561 20.2693 325.329 19.672C326.119 19.0533 327.26 18.744 328.753 18.744H331.217V22.328H327.761C326.503 22.328 325.532 22.7653 324.849 23.64C324.167 24.5147 323.825 25.56 323.825 26.776V32.056H328.753V35H316.561ZM335.781 35V19.128H338.725L339.013 21.496H339.173C339.6 20.728 340.261 20.0773 341.157 19.544C342.053 19.0107 343.088 18.744 344.261 18.744C346.202 18.744 347.664 19.3307 348.645 20.504C349.626 21.6773 350.117 23.4053 350.117 25.688V35H346.725V26.104C346.725 24.7813 346.448 23.7573 345.893 23.032C345.338 22.3067 344.464 21.944 343.269 21.944C342.096 21.944 341.114 22.3387 340.325 23.128C339.557 23.9173 339.173 25.0587 339.173 26.552V35H335.781Z" fill="white"/>
<path d="M30.8994 7.5606C30.8194 8.0606 30.7794 8.5606 30.7794 9.0606C30.7794 13.5606 34.4194 17.1986 38.8994 17.1986C39.3994 17.1986 39.8794 17.1406 40.3794 17.0606V33.1986C40.3794 39.9806 36.3794 44.0006 29.5794 44.0006H14.8014C7.9994 44.0006 3.9994 39.9806 3.9994 33.1986V18.4006C3.9994 11.6006 7.9994 7.5606 14.8014 7.5606H30.8994ZM31.3014 19.7206C30.7594 19.6606 30.2214 19.9006 29.8994 20.3406L25.0614 26.6006L19.5194 22.2406C19.1794 21.9806 18.7794 21.8786 18.3794 21.9206C17.9814 21.9806 17.6214 22.1986 17.3794 22.5186L11.4614 30.2206L11.3394 30.4006C10.9994 31.0386 11.1594 31.8586 11.7594 32.3006C12.0394 32.4806 12.3394 32.6006 12.6794 32.6006C13.1414 32.6206 13.5794 32.3786 13.8594 32.0006L18.8794 25.5386L24.5794 29.8206L24.7594 29.9386C25.3994 30.2786 26.1994 30.1206 26.6594 29.5186L32.4394 22.0606L32.3594 22.1006C32.6794 21.6606 32.7394 21.1006 32.5194 20.6006C32.3014 20.1006 31.8194 19.7606 31.3014 19.7206ZM39.1796 4C41.8396 4 43.9996 6.16 43.9996 8.82C43.9996 11.48 41.8396 13.64 39.1796 13.64C36.5196 13.64 34.3596 11.48 34.3596 8.82C34.3596 6.16 36.5196 4 39.1796 4Z" fill="white"/>
</svg>
